<svg viewBox="0 0 235 46" xmlns="http://www.w3.org/2000/svg" data-logo="logo">
    <g transform="translate(0, 3) rotate(0)" id="logogram" style="opacity: 1;"><path fill="#FFF" d="M20 0C25.3043 4.00466e-07 30.3919 2.10669 34.1426 5.85742C34.8157 6.53058 35.4354 7.24719 36 8H20C16.8174 8 13.7651 9.26421 11.5146 11.5146C9.26421 13.7651 8 16.8174 8 20H20L36.9102 9.31934C38.1656 11.3074 39.0611 13.5027 39.5547 15.8027L32 20H40L39.9941 20.4971C39.8669 25.6213 37.776 30.5092 34.1426 34.1426C30.3919 37.8933 25.3043 40 20 40C14.6957 40 9.60815 37.8933 5.85742 34.1426C5.18426 33.4694 4.56459 32.7528 4 32H20C23.1826 32 26.2349 30.7358 28.4854 28.4854C30.5952 26.3755 31.8383 23.5608 31.9854 20.5947L32 20H20L3.08984 30.6787C1.83452 28.6906 0.941002 26.4951 0.447266 24.1953L8 20H0C8.00931e-07 14.6957 2.1067 9.60815 5.85742 5.85742C9.60815 2.1067 14.6957 -5.79361e-10 20 0Z"></path></g>
    <g transform="translate(43, 1)" id="logotype" style="opacity: 1;"><path d="M20.22 15.22L11.16 15.22L11.16 20.20L19.17 20.20L19.17 24.81L11.16 24.81L11.16 30.20L20.22 30.20L20.22 35L5.17 35L5.17 10.43L20.22 10.43L20.22 15.22ZM22.92 25.23Q22.92 22.19 24.16 19.91Q25.40 17.64 27.62 16.41Q29.85 15.19 32.72 15.19L32.72 15.19Q36.39 15.19 38.86 17.11Q41.33 19.04 42.10 22.54L42.10 22.54L35.73 22.54Q34.92 20.30 32.61 20.30L32.61 20.30Q30.97 20.30 29.99 21.58Q29.01 22.85 29.01 25.23L29.01 25.23Q29.01 27.61 29.99 28.89Q30.97 30.17 32.61 30.17L32.61 30.17Q34.92 30.17 35.73 27.93L35.73 27.93L42.10 27.93Q41.33 31.36 38.84 33.32Q36.36 35.28 32.72 35.28L32.72 35.28Q29.85 35.28 27.62 34.05Q25.40 32.83 24.16 30.55Q22.92 28.28 22.92 25.23L22.92 25.23ZM54.17 35.28Q51.30 35.28 49.01 34.05Q46.72 32.83 45.40 30.55Q44.09 28.28 44.09 25.23L44.09 25.23Q44.09 22.23 45.42 19.93Q46.75 17.64 49.06 16.41Q51.37 15.19 54.24 15.19L54.24 15.19Q57.11 15.19 59.42 16.41Q61.73 17.64 63.06 19.93Q64.39 22.23 64.39 25.23L64.39 25.23Q64.39 28.24 63.04 30.54Q61.70 32.83 59.37 34.05Q57.04 35.28 54.17 35.28L54.17 35.28ZM54.17 30.10Q55.88 30.10 57.09 28.84Q58.30 27.58 58.30 25.23L58.30 25.23Q58.30 22.89 57.13 21.63Q55.95 20.37 54.24 20.37L54.24 20.37Q52.49 20.37 51.34 21.61Q50.18 22.85 50.18 25.23L50.18 25.23Q50.18 27.58 51.32 28.84Q52.45 30.10 54.17 30.10L54.17 30.10ZM92.50 15.26Q96.14 15.26 98.29 17.46Q100.44 19.67 100.44 23.59L100.44 23.59L100.44 35L94.49 35L94.49 24.39Q94.49 22.50 93.49 21.47Q92.50 20.44 90.75 20.44L90.75 20.44Q89.00 20.44 88.00 21.47Q87 22.50 87 24.39L87 24.39L87 35L81.05 35L81.05 24.39Q81.05 22.50 80.05 21.47Q79.06 20.44 77.31 20.44L77.31 20.44Q75.56 20.44 74.56 21.47Q73.56 22.50 73.56 24.39L73.56 24.39L73.56 35L67.58 35L67.58 15.47L73.56 15.47L73.56 17.92Q74.47 16.69 75.94 15.98Q77.41 15.26 79.27 15.26L79.27 15.26Q81.47 15.26 83.20 16.20Q84.94 17.15 85.92 18.90L85.92 18.90Q86.93 17.29 88.68 16.27Q90.43 15.26 92.50 15.26L92.50 15.26ZM112.58 35.28Q110.03 35.28 108.03 34.41Q106.04 33.53 104.89 32.01Q103.73 30.48 103.59 28.59L103.59 28.59L109.50 28.59Q109.61 29.61 110.45 30.24Q111.29 30.87 112.52 30.87L112.52 30.87Q113.64 30.87 114.25 30.43Q114.86 29.99 114.86 29.29L114.86 29.29Q114.86 28.45 113.98 28.05Q113.11 27.65 111.15 27.16L111.15 27.16Q109.05 26.67 107.65 26.13Q106.25 25.59 105.23 24.41Q104.22 23.24 104.22 21.24L104.22 21.24Q104.22 19.56 105.15 18.18Q106.08 16.80 107.88 15.99Q109.68 15.19 112.16 15.19L112.16 15.19Q115.84 15.19 117.96 17.01Q120.08 18.83 120.39 21.84L120.39 21.84L114.86 21.84Q114.72 20.82 113.97 20.23Q113.22 19.63 111.99 19.63L111.99 19.63Q110.94 19.63 110.38 20.04Q109.82 20.44 109.82 21.14L109.82 21.14Q109.82 21.98 110.71 22.40Q111.61 22.82 113.50 23.24L113.50 23.24Q115.67 23.80 117.03 24.34Q118.39 24.88 119.43 26.09Q120.46 27.30 120.50 29.33L120.50 29.33Q120.50 31.04 119.53 32.39Q118.57 33.74 116.77 34.51Q114.97 35.28 112.58 35.28L112.58 35.28ZM136.18 15.26Q139.53 15.26 141.56 17.48Q143.59 19.70 143.59 23.59L143.59 23.59L143.59 35L137.65 35L137.65 24.39Q137.65 22.43 136.63 21.35Q135.62 20.27 133.90 20.27L133.90 20.27Q132.19 20.27 131.17 21.35Q130.16 22.43 130.16 24.39L130.16 24.39L130.16 35L124.17 35L124.17 9.10L130.16 9.10L130.16 18.09Q131.06 16.80 132.64 16.03Q134.22 15.26 136.18 15.26L136.18 15.26ZM156.65 35.28Q153.78 35.28 151.49 34.05Q149.19 32.83 147.88 30.55Q146.57 28.28 146.57 25.23L146.57 25.23Q146.57 22.23 147.90 19.93Q149.23 17.64 151.54 16.41Q153.85 15.19 156.72 15.19L156.72 15.19Q159.59 15.19 161.90 16.41Q164.21 17.64 165.54 19.93Q166.87 22.23 166.87 25.23L166.87 25.23Q166.87 28.24 165.52 30.54Q164.18 32.83 161.85 34.05Q159.52 35.28 156.65 35.28L156.65 35.28ZM156.65 30.10Q158.37 30.10 159.57 28.84Q160.78 27.58 160.78 25.23L160.78 25.23Q160.78 22.89 159.61 21.63Q158.44 20.37 156.72 20.37L156.72 20.37Q154.97 20.37 153.81 21.61Q152.66 22.85 152.66 25.23L152.66 25.23Q152.66 27.58 153.80 28.84Q154.94 30.10 156.65 30.10L156.65 30.10ZM176.04 18.23Q176.91 16.87 178.45 16.03Q180.00 15.19 182.06 15.19L182.06 15.19Q184.47 15.19 186.44 16.41Q188.39 17.64 189.53 19.91Q190.67 22.19 190.67 25.20L190.67 25.20Q190.67 28.21 189.53 30.50Q188.39 32.80 186.44 34.04Q184.47 35.28 182.06 35.28L182.06 35.28Q180.03 35.28 178.47 34.44Q176.91 33.60 176.04 32.27L176.04 32.27L176.04 44.31L170.05 44.31L170.05 15.47L176.04 15.47L176.04 18.23ZM184.58 25.20Q184.58 22.96 183.34 21.68Q182.09 20.41 180.27 20.41L180.27 20.41Q178.49 20.41 177.25 21.70Q176.00 22.99 176.00 25.23L176.00 25.23Q176.00 27.48 177.25 28.77Q178.49 30.06 180.27 30.06L180.27 30.06Q182.06 30.06 183.32 28.75Q184.58 27.44 184.58 25.20L184.58 25.20Z" fill="#fff"></path></g>
</svg>