<svg id="SvgjsSvg1001" width="360" height="360" xmlns="http://www.w3.org/2000/svg" version="1.1" xmlns:xlink="http://www.w3.org/1999/xlink" xmlns:svgjs="http://svgjs.com/svgjs"><defs id="SvgjsDefs1002"></defs><g id="SvgjsG1008" transform="matrix(1,0,0,1,0,0)"><svg xmlns="http://www.w3.org/2000/svg" enable-background="new 0 0 2000 2000" viewBox="0 0 2000 2000" width="360" height="360"><path fill="#71c6c7" d="M1266.698,993.128l1.646,3.94l0.722,1.72l0.106,0.266l2.294-0.266h0.032l49.136-5.66H1266.698z					 M1266.698,993.128l1.646,3.94l0.722,1.72l0.106,0.266l2.294-0.266h0.032l49.136-5.66H1266.698z M1266.698,993.128l1.646,3.94
					l0.722,1.72l0.106,0.266l2.294-0.266h0.032l49.136-5.66H1266.698z M1266.698,993.128l1.646,3.94l0.722,1.72l0.106,0.266
					l2.294-0.266h0.032l49.136-5.66H1266.698z M1266.698,993.128l1.646,3.94l0.722,1.72l0.106,0.266l2.294-0.266h0.032l49.136-5.66
					H1266.698z M1708.289,671.315V171.189h-121.774l-2.007,5.66l-16.046,45.345l-302.56,49.423l-14.007,2.284l-40.216-42.754
					l-51.08-54.297l-2.634-2.804c-1.444-0.584-3.855-1.561-7.062-2.857H956.906c-0.754,1.88-1.519,3.77-2.283,5.66
					c-4.8,11.883-9.664,23.894-14.188,35.108c-10.821-10.811-22.662-22.651-35.119-35.108c-1.88-1.869-3.77-3.759-5.671-5.66
					H292.422v61.083l44.804,15.855l47.352,289.944l4.354,26.634l-96.51,90.786V862.19c11.703,4.736,23.522,9.515,34.567,13.975
					c-10.651,10.662-22.312,22.311-34.567,34.577v676.304h151.785l20.145-56.91l219.537-35.862l97.03-15.844l93.93,99.845
					c3.175,1.285,11.002,4.45,21.696,8.772h176.974c6.265-15.505,12.86-31.806,18.871-46.673
					c14.124,14.113,29.989,29.968,46.694,46.673h473.97c0.393-1.912,0.796-3.813,1.189-5.714h94.046v-206.751l-0.712-0.244
					l-62.411-22.088l-17.204-105.303l-32.241-197.427c22.524-18.743,43.689-36.361,51.218-42.626
					c-2.846-1.19-11.745-4.917-14.421-6.085c-0.096-0.531-0.191-1.062-0.287-1.604l61.083-57.462
					c1.773-4.397,7.168-17.745,14.262-35.267c0.234-0.584,0.478-1.168,0.712-1.763V745.588c-0.234-0.096-0.478-0.191-0.712-0.287
					c-17.108-6.914-35.533-14.368-52.174-21.09c15.653-15.664,33.462-33.462,52.174-52.184
					C1707.812,671.782,1708.045,671.548,1708.289,671.315z M749.751,1281.777v-194.772c-0.085,0.021-0.181,0.042-0.266,0.064
					c-0.011,0.01-0.021,0.01-0.032,0.01c-34.524,8.697-68.262,13.285-104.358,19.604c-0.871,0.149-1.752,0.298-2.623,0.457
					c0-0.011,17.182-31.476,23.894-43.816c1.635-2.995,2.644-4.863,2.644-4.885c-15.356-6.202-70.184-28.375-86.825-35.108
					c-0.488-0.191-0.945-0.372-1.359-0.542c1.168-2.888,4.142-10.237,7.975-19.699c1.975-4.896,4.195-10.365,6.499-16.078
					c5.352-13.211,11.225-27.717,16.004-39.536v-0.011c4.641-11.479,8.262-20.421,9.377-23.172l55.168-51.898l1.412-1.327
					l-4.63-28.365l-2.665-16.301L647.963,691.64l-95.947-33.95c-0.011-0.011-13.869-18.871-19.009-25.837
					c-0.011-0.011-0.011-0.011-0.011-0.011c-1.158-1.582-1.88-2.549-1.88-2.549c11.373-13.752,45.122-53.32,57.197-67.487h77.172
					c2.081-9.951,4.173-20.198,6.308-30.362c0.149-0.743,0.297-1.444,0.446-2.124c1.243-5.936,2.506-11.841,3.791-17.639
					c6.86-3.961,15.908-4.035,24.319-6.117c16.067-2.92,32.4-5.533,48.701-8.05c0.234-0.032,0.467-0.074,0.701-0.106v21.101
					l59.65,129.813c10.832,3.25,41.405,12.425,67.083,20.135c15.972,4.789,30.053,9.016,36.308,10.895
					c42.329,7.094,134.507-16.63,176.454-24.021c0.658-1.508,2.772-6.562,3.451-8.166c0.318,0.382,0.69,0.828,1.104,1.327
					c9.781,11.767,45.685,54.892,53.937,64.79c0,0,14.984,8.729,32.708,19.242h0.01c0.361,0.223,0.722,0.436,1.083,0.648
					c22.481,13.55,43.667,25.508,56.007,35.086c7.115,2.251,18.446-55.115,18.988-54.977c11.65,6.18,28.513,15.164,41.905,22.28
					c2.687,1.433,5.246,2.793,7.582,4.035l6.308-2.177c0,0,5.873-2.029,15.027-5.183c32.443-11.182,106.142-36.563,106.153-36.52
					l0.011-0.021c2.241-0.786,6.903-2.4,9.175-3.186l-3.834,3.016h-0.032v0.021c-0.403,0.318-3.632,2.857-8.453,6.658
					c-16.896,13.253-53.342,41.894-56.549,44.4l5.278,0.977l111.707,20.676c0.765-0.849,2.485-2.761,3.228-3.578
					c0.223,0.318,1.104,1.561,2.389,3.355c5.331,7.466,17.586,24.627,18.573,26.06l-5.437-1.008l-14.071-2.623l9.441,7.551
					l29.724,23.766c-0.743,0.743-1.869,1.88-3.356,3.355c-0.032,0.032-0.064,0.075-0.106,0.106
					c-18.297,18.33-88.62,88.673-132.744,132.808c-3.961,3.972-7.72,7.731-11.203,11.214c-7.551,7.55-13.837,13.837-18.287,18.297
					l-5.565,5.564h-96.701l1.646,3.94l0.722,1.72l0.106,0.266l23.405,55.859l13.444,32.092c0,0-0.966,0.414-2.623,1.115
					c-10.227,4.354-46.843,19.986-46.864,19.986v47.363h-47.076c-0.021,0.021-5.416,10.259-5.458,10.259
					c0,0.202-10.057,22.737-10.991,25.094c0,0.011,0,0.021-0.011,0.032c-0.01,0.032-0.021,0.063-0.032,0.085
					c-0.021,0.042-0.032,0.074-0.032,0.074c0.106,0.446,0.223,0.913,0.34,1.391c3.696,14.485,11.055,36.797,14.453,50.751
					c3.122,1.285,2.591,3.26-0.552,5.734c-19.147,15.059-135.293,48.743-117.271,59.618c13.742,10.258,28.694,18.722,41.554,31.37
					c37.975,38.06,77.363,81.377,113.884,121.912h0.032c9.972,11.108,11.363,19.391,9.494,26.591
					c-2.442,9.409-10.449,16.991-12.234,26.687l-187.594-233.29v-102.913l-12.425,30.701c-12.51-5.055-38.889-15.728-51.558-20.856
					l-41.703,103.115c-21.473-8.708-96-36.914-118.216-45.898l0.106,4.715l0.701,31.136H749.751z M1266.698,993.128l1.646,3.94
					l0.722,1.72l0.106,0.266l2.294-0.266h0.032l49.136-5.66H1266.698z M1266.698,993.128l1.646,3.94l0.722,1.72l0.106,0.266
					l2.294-0.266h0.032l49.136-5.66H1266.698z M1266.698,993.128l1.646,3.94l0.722,1.72l0.106,0.266l2.294-0.266h0.032l49.136-5.66
					H1266.698z M1266.698,993.128l1.646,3.94l0.722,1.72l0.106,0.266l2.294-0.266h0.032l49.136-5.66H1266.698z M1266.698,993.128
					l1.646,3.94l0.722,1.72l0.106,0.266l2.294-0.266h0.032l49.136-5.66H1266.698z" class="svgShape color71c6c7-0 selectable"></path><path fill="#d8f6f6" d="M1265.987,998.788l0.255,0.606l2.931-0.34l2.294-0.266H1265.987z M1089.151,659.559
					c0.117-0.255,0.234-0.531,0.361-0.818l1.837-4.407C1090.553,656.214,1089.82,657.956,1089.151,659.559z M993.565,679.63
					c24.074-4.088,48.563-9.313,68.836-13.497C1042.351,670.062,1014.676,675.488,993.565,679.63z M1265.987,998.788l0.255,0.606
					l2.931-0.34l2.294-0.266H1265.987z M1089.151,659.559c0.117-0.255,0.234-0.531,0.361-0.818l1.837-4.407
					C1090.553,656.214,1089.82,657.956,1089.151,659.559z M993.565,679.63c24.074-4.088,48.563-9.313,68.836-13.497
					C1042.351,670.062,1014.676,675.488,993.565,679.63z M1265.987,998.788l0.255,0.606l2.931-0.34l2.294-0.266H1265.987z
					 M1089.151,659.559c0.117-0.255,0.234-0.531,0.361-0.818l1.837-4.407C1090.553,656.214,1089.82,657.956,1089.151,659.559z
					 M993.565,679.63c24.074-4.088,48.563-9.313,68.836-13.497C1042.351,670.062,1014.676,675.488,993.565,679.63z
					 M1265.987,998.788l0.255,0.606l2.931-0.34l2.294-0.266H1265.987z M1089.151,659.559c0.117-0.255,0.234-0.531,0.361-0.818
					l1.837-4.407C1090.553,656.214,1089.82,657.956,1089.151,659.559z M993.565,679.63c24.074-4.088,48.563-9.313,68.836-13.497
					C1042.351,670.062,1014.676,675.488,993.565,679.63z M1265.987,998.788l0.255,0.606l2.931-0.34l2.294-0.266H1265.987z
					 M1089.512,658.741l1.837-4.407c-0.796,1.88-1.529,3.621-2.198,5.225C1089.268,659.304,1089.384,659.028,1089.512,658.741z
					 M1062.4,666.132c-20.05,3.929-47.724,9.356-68.836,13.497C1017.639,675.542,1042.128,670.317,1062.4,666.132z
					 M1584.508,176.849l-16.046,45.345l-302.56,49.423l-14.007,2.284l-40.216-42.754l-51.08-54.297H954.623
					c-4.8,11.883-9.664,23.894-14.188,35.108c-10.821-10.811-22.662-22.651-35.119-35.108H291.711v55.168l0.711,0.255l44.804,15.855
					l47.352,289.944l4.354,26.634l-96.51,90.786l-0.711,0.669v205.742c0.234,0.096,0.478,0.191,0.711,0.287
					c11.703,4.736,23.522,9.515,34.567,13.975c-10.651,10.662-22.312,22.311-34.567,34.577c-0.234,0.233-0.467,0.467-0.711,0.711
					v681.252h150.5l1.996-5.66l20.145-56.91l219.537-35.862l97.03-15.844l93.93,99.845c3.175,1.285,11.002,4.45,21.696,8.772
					c4.248,1.72,8.942,3.621,13.975,5.66h160.705c0.765-1.869,1.529-3.759,2.294-5.66c6.265-15.505,12.86-31.806,18.871-46.673
					c14.124,14.113,29.989,29.968,46.694,46.673c1.869,1.879,3.759,3.759,5.65,5.66h467.152c0.382-1.89,0.775-3.781,1.168-5.66
					c0.393-1.912,0.796-3.813,1.189-5.714h93.335v-206.995l-62.411-22.088l-17.204-105.303l-32.241-197.427
					c22.524-18.743,43.689-36.361,51.218-42.626c-2.846-1.19-11.745-4.917-14.421-6.085c-0.096-0.531-0.191-1.062-0.287-1.604
					l61.083-57.462c1.773-4.397,7.168-17.745,14.262-35.267V745.301c-17.108-6.914-35.533-14.368-52.174-21.09
					c15.653-15.664,33.462-33.462,52.174-52.184V176.849H1584.508z M1438.161,701.188h-0.043v0.032
					c-1.519,1.19-43.02,33.792-59.013,46.365c-3.143,2.464-5.299,4.163-5.979,4.694l116.984,21.642
					c0.446-0.51,1.242-1.391,1.975-2.198l0.117-0.117c0.435-0.499,0.85-0.956,1.136-1.264c0.032,0.042,0.074,0.106,0.127,0.18
					c1.391,1.954,10.375,14.538,16.099,22.566c2.496,3.504,4.365,6.149,4.726,6.669l-9.356-1.741l-10.152-1.891l23.936,19.136
					c0.074,0.074,0.159,0.138,0.244,0.202l12.234,9.781l2.75,2.199c-9.749,9.791-87.059,87.112-134.974,135.048
					c-3.961,3.95-7.72,7.71-11.214,11.214c-4.981,4.97-9.43,9.43-13.221,13.221c-5.565,5.565-9.674,9.685-11.851,11.862h-96.701
					l0.255,0.606l1.402,3.334l21.993,52.524l13.763,32.868l1.911,4.556c-0.064,0-42.722,18.212-48.775,20.803
					c-0.457,0.191-0.712,0.298-0.712,0.298v47.352h-47.066c-0.032,0.021-5.427,10.259-5.469,10.269
					c0,0.191-9.303,17.416-10.28,19.423c0,0.011,0,0.021-0.011,0.032c-0.01,0.032-0.021,0.063-0.032,0.085
					c-0.021,0.042-0.032,0.074-0.032,0.074c0.106,0.446,0.223,0.913,0.34,1.391c3.642,14.825,10.354,42.457,13.752,56.411
					c0.053,0.021,0.096,0.042,0.149,0.074c20.549,8.91-126.914,45.823-117.271,59.618c0.308,0.446,0.797,0.871,1.455,1.274
					c13.742,10.259,26.528,23.119,39.388,35.767c37.975,38.05,77.363,81.377,113.894,121.901h0.021
					c7.466,8.325,10.12,15.048,10.205,20.931c0.138,10.482-7.901,18.265-11.543,27.547c-0.414,1.051-0.775,2.113-1.051,3.207
					c-0.138,0.52-0.255,1.062-0.35,1.603l-187.594-233.3v-102.913l-12.425,30.701c-12.51-5.055-38.889-15.728-51.547-20.857
					l-41.714,103.116c-21.473-8.708-95.193-38.517-117.399-47.501v37.455H749.05v-194.762
					c-35.278,8.899-69.706,13.508-106.673,20.018c-0.202,0.042-0.404,0.074-0.605,0.106c0-0.011,1.306-2.4,3.324-6.117
					c7.126-13.062,23.214-42.521,23.214-42.573c-0.595-0.244-1.242-0.499-1.943-0.786c-18.106-7.327-72.043-29.129-86.252-34.874
					c0.446-1.104,1.158-2.857,2.071-5.118c1.933-4.779,4.8-11.852,8.103-20.008c1.274-3.154,2.612-6.456,3.993-9.866
					c6.563-16.248,13.997-34.598,19.232-47.544c3.207-7.922,5.596-13.816,6.457-15.961l56.591-53.225l-0.711-4.333l-4.524-27.738
					l-2.666-16.301l-21.398-131.056l-95.958-33.95c-0.775-1.052-1.614-2.199-2.517-3.43c-0.68-0.924-1.391-1.901-2.134-2.91
					c-3.717-5.034-8.135-11.044-12.595-17.108c-1.104-1.487-2.198-2.974-3.281-4.46c-0.127-0.159-0.244-0.318-0.35-0.478
					l-0.011-0.011c0.17-0.212,0.35-0.425,0.552-0.648c0.467-0.563,0.977-1.168,1.497-1.816c0.17-0.213,0.351-0.425,0.531-0.648
					c0.51-0.605,1.041-1.242,1.604-1.901c1.051-1.253,2.198-2.612,3.398-4.046c0.351-0.414,0.701-0.839,1.062-1.264
					c1.54-1.826,3.175-3.77,4.885-5.798c0.435-0.499,0.86-1.009,1.296-1.529c1.317-1.55,2.655-3.143,4.035-4.768
					c0.68-0.797,1.37-1.614,2.06-2.432c0.52-0.606,1.041-1.221,1.572-1.848c0.52-0.616,1.051-1.242,1.582-1.869
					c1.986-2.337,3.982-4.694,5.989-7.052c0.489-0.584,0.988-1.168,1.476-1.742c0.818-0.956,1.625-1.911,2.432-2.867
					c0.595-0.701,1.179-1.391,1.773-2.081c3.196-3.759,6.297-7.402,9.175-10.779c0.573-0.68,1.136-1.338,1.699-1.997
					c0.627-0.733,1.232-1.444,1.827-2.134c0.563-0.669,1.126-1.327,1.667-1.965c1.402-1.646,2.708-3.175,3.897-4.566
					c0.467-0.552,0.924-1.083,1.359-1.593c0.648-0.765,1.253-1.476,1.816-2.135l0.011-0.01h77.172
					c1.306-6.276,2.623-12.659,3.95-19.073c0-0.032,0.011-0.064,0.021-0.096c1.763-8.549,3.557-17.14,5.384-25.551
					c0.393-1.816,0.786-3.611,1.179-5.405c2.049-1.179,4.28-2.018,6.637-2.655h0.011c5.554-1.529,11.767-1.996,17.671-3.462
					c3.643-0.659,7.296-1.306,10.959-1.933c0.053-0.01,0.106-0.021,0.17-0.032c12.659-2.188,25.434-4.216,38.188-6.17
					c0.032,0,0.053,0,0.085-0.011h0.011v21.101l59.639,129.802c9.897,2.974,36.266,10.896,60.329,18.117
					c18.658,5.596,35.926,10.779,43.062,12.914c19.71,3.302,50.209-0.064,81.42-5.374c0.021-0.011,0.043-0.011,0.064-0.011
					c24.074-4.088,48.563-9.313,68.836-13.497c0.393-0.085,0.775-0.159,1.147-0.233c9.154-1.891,17.437-3.558,24.372-4.779
					c0.276-0.053,0.488-0.095,0.616-0.117c0.096-0.233,0.202-0.478,0.308-0.722c0.096-0.234,0.202-0.478,0.308-0.722
					c0.117-0.255,0.234-0.531,0.361-0.818l1.837-4.407l0.637-1.508c7.773,9.356,46.439,55.795,55.041,66.117
					c0,0,14.995,8.729,32.708,19.243h0.011c22.885,13.827,44.549,26.007,57.101,35.734c7.115,2.251,18.446-55.115,18.977-54.977
					c9.25,4.906,21.802,11.597,33.281,17.703c5.883,3.132,11.48,6.106,16.205,8.612l6.319-2.177c0,0,6.627-2.283,16.768-5.787
					c3.972-1.36,8.485-2.92,13.359-4.598c31.444-10.832,77.682-26.75,88.62-30.489c1.561-0.542,2.411-0.828,2.421-0.828l0.011-0.022
					c2.251-0.786,6.913-2.4,9.186-3.175L1438.161,701.188z M993.565,679.63c24.074-4.088,48.563-9.313,68.836-13.497
					C1042.351,670.062,1014.676,675.488,993.565,679.63z M1089.151,659.559c0.117-0.255,0.234-0.531,0.361-0.818l1.837-4.407
					C1090.553,656.214,1089.82,657.956,1089.151,659.559z M1265.987,998.788l0.255,0.606l2.931-0.34l2.294-0.266H1265.987z
					 M993.565,679.63c24.074-4.088,48.563-9.313,68.836-13.497C1042.351,670.062,1014.676,675.488,993.565,679.63z
					 M1089.151,659.559c0.117-0.255,0.234-0.531,0.361-0.818l1.837-4.407C1090.553,656.214,1089.82,657.956,1089.151,659.559z
					 M1265.987,998.788l0.255,0.606l2.931-0.34l2.294-0.266H1265.987z M993.565,679.63c24.074-4.088,48.563-9.313,68.836-13.497
					C1042.351,670.062,1014.676,675.488,993.565,679.63z M1089.151,659.559c0.117-0.255,0.234-0.531,0.361-0.818l1.837-4.407
					C1090.553,656.214,1089.82,657.956,1089.151,659.559z M1265.987,998.788l0.255,0.606l2.931-0.34l2.294-0.266H1265.987z
					 M993.565,679.63c24.074-4.088,48.563-9.313,68.836-13.497C1042.351,670.062,1014.676,675.488,993.565,679.63z
					 M1089.151,659.559c0.117-0.255,0.234-0.531,0.361-0.818l1.837-4.407C1090.553,656.214,1089.82,657.956,1089.151,659.559z
					 M1265.987,998.788l0.255,0.606l2.931-0.34l2.294-0.266H1265.987z M993.565,679.63c24.074-4.088,48.563-9.313,68.836-13.497
					C1042.351,670.062,1014.676,675.488,993.565,679.63z M1089.151,659.559c0.117-0.255,0.234-0.531,0.361-0.818l1.837-4.407
					C1090.553,656.214,1089.82,657.956,1089.151,659.559z M1265.987,998.788l0.255,0.606l2.931-0.34l2.294-0.266H1265.987z" class="svgShape colord8f6f6-1 selectable"></path><path fill="#3cb0b3" d="M649.822 1587.077c-.039 1.078-.685 1.662-1.454 2.192-.534.694-.636 1.7-1.229 2.356-.299.324-1.033 1.101-1.529 1.08.039-.678.313-1.243.613-1.749.443-.765 1.371-1.169 1.869-1.889.27-.894.63-1.688 1.645-2.053C649.778 1586.997 649.826 1587.032 649.822 1587.077L649.822 1587.077zM683.842 1494.299c0 0-12.281-22.478-12.281-22.478-.039-.072-.039-.157-.01-.227 6.839-16.238 22.137-52.954 28.793-68.503 13.952-32.431 34.899-81.614 48.396-113.869-.332-62.682-.302-133.919.104-196.546 0 0 .266.196.266.196-5.874 1.665-11.968 2.996-17.921 4.041 5.86-1.44 11.995-2.57 17.799-4.433.129-.042.269.059.267.196.411 62.629.43 133.862.104 196.546-16.14 37.562-37.215 88.108-52.984 125.638-3.387 7.729-20.821 49.157-24.35 56.714C671.945 1471.582 684.259 1494.476 683.842 1494.299L683.842 1494.299zM291.705 1167.029c43.532-6.982 93.166-14.451 136.996-20.799 65.958-10.01 162.177-25.974 228.136-35.892 0 0-22.747 4.001-22.747 4.001-68.114 11.857-136.984 21.919-205.328 32.288C384.898 1153.522 335.212 1161.37 291.705 1167.029L291.705 1167.029zM1054.383 1184.528c.27 28.551.312 73.983.412 102.91-.933-1.569 52.922 66.114 52.641 65.651 50.577 63.223 108.537 134.108 158.767 197.128 21.685 10.463 65.524 31.887 87.185 42.443-21.655-9.965-65.802-31.215-87.612-41.556-51.651-63.721-107.48-134.269-158.721-197.707.045-.19-53.391-65.67-53.188-65.958C1054.077 1258.636 1053.803 1212.746 1054.383 1184.528L1054.383 1184.528zM291.715 936.284c51.685 1.443 105.899 4.862 157.611 6.888 50.725 1.978 107.342 4.381 157.506 7.265 0 0 6.651-4.562 6.651-4.562.024-.017.057-.01.074.014.016.024.011.056-.013.073 0 0-6.547 4.711-6.547 4.711-50.68-1.665-106.867-4.349-157.697-6.953C397.719 940.98 342.898 939.79 291.715 936.284L291.715 936.284zM748.992 505.234c-.289-19.073-.376-49.498-.422-68.831-4.488-13.248-9.266-28.193-13.789-42.033-12.655-38.683-29.65-87.595-42.44-126.402-.019-20.273.159-48.063.282-68.34.079-7.594.049-15.299.272-22.833.222 7.539.192 15.238.272 22.833.124 20.316.303 48.031.282 68.34 6.759 20.024 20.962 63.39 27.755 84.139 8.863 27.415 19.271 57.052 28.315 84.296C749.366 455.592 749.589 486.532 748.992 505.234L748.992 505.234zM963.119 685.546c38.915-7.973 86.288-17.276 125.329-24.99 4.948-13.145 36.746-86.72 41.917-99.412 27.431-65.565 64.272-153.915 91.987-219.707.456 1.259-28.198-85.866-27.815-85.915.087.058 17.123-24.791 17.186-24.345 0 0-16.798 24.614-16.798 24.614s.03-.208.03-.208c-.014.371 28.655 85.902 28.374 86.264-24.261 57.686-59.914 142.11-84.232 199.479-11.514 26.613-38.433 92.892-50.474 120.124C1050.307 668.847 1001.169 678.675 963.119 685.546L963.119 685.546zM1265.955 271.617c.775 65.372 2.026 131.701-1.317 196.951-.391 3.087-1.148 28.479-5.038 27.144 0 0 .277-.262.277-.262-.014.259 14.809 41.423 14.686 41.662 0 0-8.132 32.802-8.132 32.802.072-.475.027 63.11.064 63.053 0 .209-.127.389-.308.467-16.864 6.992-40.597 17.635-57.266 24.492 0 .001.255-.27.255-.27s-14.652 40.287-14.652 40.287c-.099-.035-14.651 40.64-14.828 40.224 3.554-10.173 10.657-30.302 14.257-40.429 0 0 14.345-40.397 14.345-40.397.044-.125.142-.221.255-.271 16.493-6.992 40.451-17.515 57.233-24.569 0 0-.307.466-.307.466.014-.112.023-63.175.064-63.276 0 0 8.371-32.742 8.371-32.742.211.976-14.483-41.59-14.432-41.361-.077-.159.12-.351.277-.263.402.19.806-.322 1.055-.802 1.592-3.752 1.825-7.952 2.365-11.96 1.426-13.992 1.724-28.076 2.112-42.129C1266.481 386.958 1265.542 324.847 1265.955 271.617L1265.955 271.617zM292.406 446.943c-.326.59-.298.316-.304.025-.072-.085-.259.361-.39.288-.04-.017-.082-.402.016-.648.166-.305.263-.402.338-.43.057.025.099.1.092.321-.002.105.011.165.052.143.039-.02.123-.174.173-.228C292.486 446.297 292.496 446.702 292.406 446.943L292.406 446.943zM384.591 538.02c13.947 3.447 41.776 10.317 55.676 13.862 8.271 11.086 25.856 35.723 33.628 46.568 0 0 11.072 15.53 11.072 15.53s-.311-.16-.311-.16 30.435.094 30.435.094c4.178 5.121 16.96 23.109 20.696 28.042 3.13 4.341 12.673 17.066 15.589 21.191 28.209 9.901 68.241 23.849 96.049 33.692 4.977 26.052 10.57 64.081 14.969 90.096 3.475 22.311 10.875 67.549 14.176 89.844-4.002-22.34-11.33-67.284-15.142-89.687-4.139-25.783-10.474-63.498-14.647-89.713 0 0 .319.382.319.382-27.654-9.764-67.805-24.217-95.866-34.209-.145-.013-10.399-14.223-10.5-14.299-6.131-8.332-19.578-26.424-25.873-34.88 1.189.25-30.43.159-30.203.211-.127 0-.242-.065-.311-.16l-11.165-15.463c-7.474-10.402-26.192-36.358-33.084-46.411C426.429 548.953 397.867 541.849 384.591 538.02L384.591 538.02z" class="svgShape color3cb0b3-2 selectable"></path><path fill="#3cb0b3" d="M530.386,634.927c18.578-22.502,37.939-45.668,56.979-67.66
						c21.956-0.055,55.123,0.033,77.42-0.215c0,0-0.409,0.326-0.409,0.326c1.109-5.103,2.197-10.209,3.158-15.342
						c1.509-7.698,2.598-15.469,4.229-23.154c2.019-9.571,5.393-14.154,15.24-16.356c9.001-2.092,21.847-3.27,31.052-4.669
						c7.522-1.055,15.717-2.321,23.246-3.536c0,0,7.732-1.297,7.732-1.297c-9.789,2.277-20.655,3.874-30.876,5.527
						c0,0-15.512,2.306-15.512,2.306c-7.566,1.353-15.695,1.743-22.538,5.409c-6.837,4.176-7.158,13.425-8.756,20.531
						c-1.817,10.29-3.714,20.599-6.158,30.776c-0.046,0.192-0.219,0.321-0.408,0.32c-13.519-0.107-44.79-0.278-57.884-0.232
						c0,0-19.295,0.129-19.295,0.129s0.241-0.111,0.241-0.111c-4.721,5.661-9.424,11.337-14.187,16.961
						C559.884,600.805,544.434,619.28,530.386,634.927L530.386,634.927z" class="svgShape color3cb0b3-3 selectable"></path><path fill="#d8f6f6" d="M1707.579,836.203v41.88c-56.176,10.68-95.214,19.823-95.214,19.823
						c-30.601-36.301-81.157-71.76-117.581-101.774l19.513,3.629v0.078L1707.579,836.203z" class="svgShape colord8f6f6-4 selectable"></path><path fill="#3cb0b3" d="M1707.62 836.169c.044 10.439.258 31.473.258 41.914 0 0 .001.246.001.246s-.244.047-.244.047c-31.281 6.084-64.06 12.911-95.186 19.888-34.514-39.546-78.614-69.764-119.248-102.864 0 0 1.662.305 1.662.305s19.521 3.582 19.521 3.582.394.072.394.072 0 .402 0 .402 0 .077 0 .077-.393-.474-.393-.474C1562.584 808.341 1659.518 826.78 1707.62 836.169L1707.62 836.169zM1707.539 836.236c-48.237-8.735-145.191-26.773-193.331-35.925 0 0-.393-.074-.393-.074s0-.4 0-.4 0-.077 0-.077.394.474.394.474-19.504-3.676-19.504-3.676.355-.761.355-.761c30.016 24.767 61.531 47.798 90.331 74.043 9.574 8.768 18.822 17.928 27.256 27.828 0 0-.366-.121-.366-.121 7.896-1.852 15.805-3.624 23.722-5.368 23.565-5.191 47.842-9.921 71.52-14.389 0 0-.243.294-.243.294C1707.269 867.648 1707.48 846.668 1707.539 836.236L1707.539 836.236zM1627.938 1246.992c-44.399-24.204-83.943-56.405-120.871-90.723-39.387-36.041-79.876-79.666-112.239-118.261-7.034-8.532-24.451-29.698-32.181-39.185 8.191 9.301 24.916 29.106 32.906 38.918 32.21 36.872 72.836 82.319 111.756 118.266C1544.307 1190.104 1584.752 1221.684 1627.938 1246.992L1627.938 1246.992z" class="svgShape color3cb0b3-5 selectable"></path><line x1="1091.982" x2="1089.508" y1="652.829" y2="658.739" fill="none" class="selectable"></line><path fill="#3cb0b3" d="M1492.046,771.688c18.344-16.113,39.887-33.322,58.994-48.745
						c6.569-5.32,13.164-10.821,19.539-16.326c0,0,0.438,0.393,0.438,0.393l0.558-0.508c0.234-0.181,0.404-0.55,0.052-0.707
						c-0.128-0.036-0.067-0.042-0.05-0.079c0.715-0.668,2.539-2.309,3.285-2.991c41.638-37.873,90.479-81.959,132.401-119.7
						c3.406,1.091-265.984,114.847-265.318,115.177c0.55,0.106,265.586-116.249,266.067-115.015c0.084,0.191,0.03,0.408-0.116,0.54
						c-17.066,15.447-51.284,46.35-68.376,61.736c-17.899,16.124-46.56,41.925-64.238,57.727c-0.721,0.619-2.536,2.293-3.234,2.898
						c-0.179,0.127-0.182,0.228-0.477,0.3c-0.123,0.038-0.328-0.12-0.334-0.204c-0.028-0.076-0.03-0.083-0.045-0.086
						c-0.026,0-0.064,0.034-0.102,0.065c0,0-0.51,0.456-0.51,0.456l0.438,0.393c-6.537,5.567-13.211,10.746-19.724,16.24
						C1533.248,738.319,1510.332,757.402,1492.046,771.688L1492.046,771.688z" class="svgShape color3cb0b3-7 selectable"></path><polyline fill="#d8f6f6" points="1677.132 1581.332 1674.912 1581.332 1593.004 1499.201 1255.973 1161.257" class="svgShape colord8f6f6-8 selectable"></polyline><path fill="#3cb0b3" d="M1677.132,1581.385c0,0-2.219,0.003-2.219,0.003s-0.023,0-0.023,0s-0.017-0.017-0.017-0.017
						c-109.258-109.39-285.758-285.424-392.886-393.69c0.076-0.074-26.344-26.396-25.976-26.463c0,0,26.317,26.122,26.317,26.122
						c107.332,106.776,284.201,285.068,392.626,393.953c-0.183-0.044,2.203-0.002,2.179-0.014
						C1677.132,1581.279,1677.132,1581.385,1677.132,1581.385L1677.132,1581.385z" class="svgShape color3cb0b3-9 selectable"></path><line x1="1305.312" x2="1507.185" y1="1092.672" y2="1156.137" fill="none" stroke="#3cb0b3" stroke-miterlimit="10" stroke-width="1.062" class="svgStroke colorStroke3cb0b3-10 selectable"></line><path fill="#3cb0b3" d="M868.999,672.052c0.147-0.034,93.971-46.28,94.127-46.246c0,0,42.771-0.093,42.771-0.093
						c-1.541,1.469,25.761-42.918,25.363-42.604c21.184-3.796,50.677-7.478,72.054-10.769c0.045,0.051,23.975-3.485,23.974-3.326
						c0.096,0.12-23.892,3.829-23.892,3.869c-21.269,3.314-50.317,7.868-71.605,11.021c1.604-1.649-25.94,42.82-25.528,42.456
						c-0.08,0.132-0.222,0.205-0.365,0.206c0,0-42.771-0.093-42.771-0.093C963.767,626.151,868.69,672.51,868.999,672.052
						L868.999,672.052z" class="svgShape color3cb0b3-11 selectable"></path><path fill="#4c8788" d="M1395.747,1043.04v-0.021l-0.605-5.278v-0.011l-6.053-52.482l-1.327-11.543l-0.51-4.439
				l-10.099-87.834l-48.021,5.533l-12.34,1.412l11.958,103.816l0.106,0.934l0.658,5.66l5.894,51.186l6.234,54.117l0.361,3.154
				l7.083-0.807l5.257-0.605l48-5.522L1395.747,1043.04z M1423.825,1034.799l-6.074-52.864l-16.322,1.88l-12.34,1.433l-14.549,1.678
				l-5.575,0.637l-27.876,3.217l-12.34,1.412l-8.113,0.934l-49.136,5.66h-0.032l-2.294,0.266l-2.931,0.34l-10.821,1.242
				l-12.319,1.423l85.296-264.765l1.731-5.374l-2.772,0.318l-28.917,3.324l-9.335,1.083l-13.126,1.508l-12.319,1.412
				l-89.756,273.558l6.287,54.723l12.34-1.412l97.105-11.183l2.942-0.34l42.828-4.938l12.329-1.423l48.011-5.512v-0.021l3.568-0.404
				l8.761-1.009l13.529-1.55l2.793-0.329L1423.825,1034.799z" class="svgShape color4c8788-12 selectable"></path><path fill="#7db7b3" d="M1409.563,1054.467v-0.011l-1.487-12.849l-6.648-57.791l-2.453-21.324l-0.52-4.439l-8.984-78.042
				l-12.319,1.423l-48.021,5.533l11.958,103.816l0.266,2.347l0.658,5.66l5.724,49.763v0.01l6.605,57.271l48-5.522l12.34-1.434
				L1409.563,1054.467z M1436.324,1034.799l-6.255-54.276l-12.319,1.412l-16.322,1.88l-12.34,1.433l-14.549,1.678l-5.575,0.637
				l-27.876,3.217l-12.34,1.412l-8.113,0.934l-49.136,5.66h-0.032l-2.294,0.266l-2.931,0.34l-10.821,1.242l86.337-267.941
				l0.711-2.209l-12.34,1.434l-2.772,0.318l-28.917,3.324l-9.335,1.083l-13.126,1.508l-89.756,273.558l6.308,54.723l97.105-11.183
				l2.942-0.34l42.828-4.938l12.329-1.412l48.011-5.522l3.579-0.414l8.75-1.02l13.529-1.55l2.793-0.329l12.319-1.412
				L1436.324,1034.799z" class="svgShape color7db7b3-13 selectable"></path><path fill="#4c8788" d="M772.52,867.648l-12.266-1.965l-16.439,103.211l-9.143,57.441l-9.069,56.931l12.255,1.943
				l11.628,1.859l0.266,0.042l26.506,4.237l9.324,1.476l9.069-56.931l0.011-0.011l9.154-57.43l16.439-103.201L772.52,867.648z
				 M816.06,980.406l-12.244-1.954l-47.735-7.614l-12.266-1.943l-72.882-11.618l-12.266-1.965l156.563-236.719l-53.82-8.581
				l-12.266-1.943l-79.179,118.333l-1.306,1.954l-79.625,119.002l-0.382,2.368l-8.262,52.025l8.411,1.338l1.487,0.233l2.358,0.372
				l142.025,22.641l12.265,1.943l47.714,7.615l12.244,1.954l16.227,2.58l9.154-57.441L816.06,980.406z" class="svgShape color4c8788-14 selectable"></path><path fill="#7db7b3" d="M820.254,875.252l-47.735-7.603l-16.439,103.19l-9.144,57.441l-9.08,56.932v0.021l11.597,1.848
				l0.297,0.042l26.506,4.227l9.324,1.476l12.255,1.943l9.058-56.921l9.165-57.441l16.439-103.211L820.254,875.252z
				 M832.276,982.987l-16.216-2.58l-12.244-1.954l-47.735-7.614l-12.266-1.943l-72.882-11.618l156.553-236.741l-12.255-1.943
				l-53.82-8.581l-88.779,132.69l-1.306,1.954l-70.014,104.645l-0.159,0.998l-5.851,36.711l-1.02,6.446l-1.635,10.237
				l142.025,22.641l12.265,1.943l47.724,7.604l12.234,1.965l16.227,2.58l12.255,1.954l9.154-57.452L832.276,982.987z" class="svgShape color7db7b3-15 selectable"></path><path fill="#4c8788" d="M1095.331,814.805c-16.11-18.743-40.662-29.681-73.604-32.835h-0.021
				c-2.071-0.191-4.152-0.361-6.276-0.499c-35.958-2.294-63.728,5.395-83.342,23.055c-19.625,17.66-30.478,43.019-32.581,76.067
				l-10.821,169.785c-2.06,32.549,5.395,58.938,22.418,79.19c17.023,20.262,43.678,31.54,79.986,33.855
				c2.05,0.117,4.067,0.223,6.042,0.287h0.074c33.005,1.094,58.747-6.701,77.236-23.342c19.614-17.66,30.467-43.02,32.581-76.067
				l10.821-169.785C1119.969,861.298,1112.461,834.728,1095.331,814.805z M994.85,1104.601c-16.959-1.072-28.853-6.86-35.65-17.352
				c-6.807-10.493-9.653-24.489-8.549-41.937l9.685-151.816c1.115-17.628,5.713-31.19,13.795-40.641
				c8.081-9.462,20.613-13.646,37.561-12.563c2.177,0.138,4.237,0.34,6.244,0.637c13.657,1.986,23.459,7.508,29.405,16.588
				c6.828,10.407,9.664,24.435,8.527,42.075l-9.664,151.795c-1.115,17.48-5.724,30.987-13.795,40.524
				c-7.083,8.347-17.565,12.637-31.413,12.839C999.012,1104.782,996.963,1104.739,994.85,1104.601z" class="svgShape color4c8788-16 selectable"></path><path fill="#7db7b3" d="M1107.714,815.581c-17.119-19.912-43.763-31.009-79.891-33.324
				c-2.071-0.117-4.099-0.223-6.096-0.287h-0.021c-33.016-1.083-58.758,6.701-77.246,23.342
				c-19.604,17.661-30.457,43.03-32.559,76.068l-10.821,169.785c-2.081,32.549,5.395,58.949,22.418,79.189
				c16.025,19.062,40.556,30.192,73.636,33.356h0.074c2.05,0.212,4.152,0.361,6.266,0.499c35.958,2.294,63.759-5.384,83.363-23.055
				c19.604-17.66,30.457-43.019,32.581-76.067l10.821-169.785C1132.362,862.083,1124.843,835.513,1107.714,815.581z
				 M1024.085,841.089c16.949,1.083,28.821,6.818,35.65,17.225c6.818,10.407,9.664,24.435,8.527,42.053l-9.664,151.816
				c-1.126,17.469-5.724,30.967-13.805,40.513c-8.092,9.536-20.602,13.774-37.561,12.691c-2.166-0.138-4.237-0.34-6.234-0.637
				c-13.667-1.996-23.469-7.582-29.416-16.715c-6.807-10.492-9.664-24.478-8.549-41.947l9.685-151.795
				c1.126-17.65,5.724-31.19,13.805-40.651c7.083-8.262,17.543-12.52,31.412-12.712
				C1019.912,840.898,1021.961,840.951,1024.085,841.089z" class="svgShape color7db7b3-17 selectable"></path><polygon fill="#71c6c7" points="597.15 1617.739 587.226 1613.958 588.204 1625.472 572.922 1638.684 535.906 1604.852 525.982 1601.071 533.503 1622.474 522.97 1699.734 640.534 1744.523 677.745 1692.546" class="svgShape color71c6c7-18 selectable"></polygon><polygon fill="#d8f6f6" points="630.61 1740.743 513.046 1695.953 525.982 1601.071 562.998 1634.903 587.226 1613.958 667.821 1688.766" class="svgShape colord8f6f6-19 selectable"></polygon><path fill="#71c6c7" d="M841.923,1866.64c-12.866-4.374,2.49-22.923,2.49-22.923l-38.547,17.779l-8.448,8.201l3.431-0.187
			l-21.087,33.686l33.459,7.534l13.304,30.567l44.284-32.186l0.939,0.828l7.815-7.19l29.34-59.415
			C908.904,1843.334,854.789,1871.014,841.923,1866.64z" class="svgShape color71c6c7-20 selectable"></path><path fill="#d8f6f6" d="M871.749,1909.938l-53.038,38.548l-13.304-30.567l-33.458-7.534l26.103-41.7l38.547-17.779
			c0,0-15.356,18.549-2.49,22.923c12.866,4.374,66.981-23.306,66.981-23.306L871.749,1909.938z" class="svgShape colord8f6f6-21 selectable"></path><path fill="#71c6c7" d="M1246.559,1855.892l-2.662-10.28l11.97,8.666l28.846-5.003l-30.118-30.474l-2.662-10.281
			l6.586,2.729l16.834-32.397l62.315,15.004c-0.597-1.42-0.984-2.352-0.984-2.352l15.059-3.899l2.662,10.281l-47.702,134.591
			L1246.559,1855.892z" class="svgShape color71c6c7-22 selectable"></path><polygon fill="#d8f6f6" points="1351.744 1787.605 1272.692 1768.572 1251.934 1808.52 1282.052 1838.994 1243.898 1845.611 1304.042 1922.195" class="svgShape colord8f6f6-23 selectable"></polygon><polygon fill="#71c6c7" points="1194.116 1693.16 1121.373 1619.668 1149.566 1706.736 1157.037 1714.284 1154.486 1701.318 1163.253 1691.663" class="svgShape color71c6c7-24 selectable"></polygon><polygon fill="#d8f6f6" points="1201.587 1700.708 1128.844 1627.215 1157.037 1714.284 1170.723 1699.211" class="svgShape colord8f6f6-25 selectable"></polygon><polygon fill="#71c6c7" points="951.464 1669.253 946.236 1674.118 947.431 1676.893 946.295 1679.044 937.783 1655.085 930.228 1639.202 925 1644.067 925.727 1647.328 916.567 1663.868 943.619 1700.437 970.316 1675.596" class="svgShape color71c6c7-26 selectable"></polygon><polygon fill="#d8f6f6" points="925 1644.067 911.339 1668.733 938.391 1705.301 965.088 1680.46 946.236 1674.118 941.067 1683.909 932.555 1659.95" class="svgShape colord8f6f6-27 selectable"></polygon><polygon fill="#71c6c7" points="1558.55 1714.803 1563.577 1709.731 1562.271 1707.007 1563.319 1704.812 1572.794 1728.406 1580.985 1743.971 1586.012 1738.898 1585.153 1735.669 1593.637 1718.772 1565.126 1683.328 1539.457 1709.229" class="svgShape color71c6c7-28 selectable"></polygon><polygon fill="#d8f6f6" points="1586.012 1738.898 1598.664 1713.699 1570.154 1678.256 1544.484 1704.157 1563.577 1709.731 1568.346 1699.739 1577.82 1723.334" class="svgShape colord8f6f6-29 selectable"></polygon><path fill="#4c8788" d="M366.679 171.19V52.735h22.323V171.19H366.679zM376.863 125.241v-21.507h37.883c4.019 0 7.277-1.345 9.775-4.033 2.498-2.689 3.748-6.232 3.748-10.632 0-4.507-1.236-8.106-3.706-10.795-2.472-2.688-5.744-4.032-9.817-4.032h-37.883V52.735h37.312c7.495 0 14.025 1.507 19.593 4.522 5.566 3.015 9.898 7.238 12.993 12.668 3.096 5.432 4.644 11.813 4.644 19.145 0 7.279-1.548 13.633-4.644 19.064-3.096 5.431-7.441 9.641-13.035 12.627-5.594 2.988-12.112 4.48-19.552 4.48H376.863zM451.813 171.19L497.11 52.735h14.176l45.296 118.454h-24.033l-28.351-80.897-28.351 80.897H451.813zM473.566 152.208v-21.508h62.323v21.508H473.566zM607.906 104.957h41.06v23.137c0 8.908-1.793 16.688-5.377 23.34-3.585 6.654-8.595 11.813-15.031 15.479-6.436 3.666-13.999 5.5-22.689 5.5-8.745 0-16.389-1.724-22.934-5.174-6.545-3.448-11.622-8.309-15.234-14.582-3.612-6.273-5.418-13.591-5.418-21.956v-34.95c0-8.907 1.793-16.673 5.377-23.3 3.585-6.626 8.595-11.773 15.031-15.439 6.436-3.666 13.998-5.499 22.689-5.499 7.169 0 13.7 1.466 19.593 4.399 5.893 2.933 10.848 7.034 14.867 12.302 4.019 5.268 6.735 11.434 8.147 18.493h-24.115c-1.195-3.856-3.572-6.829-7.128-8.921-3.558-2.09-7.346-3.136-11.365-3.136-6.028 0-10.863 1.928-14.501 5.784-3.639 3.858-5.459 8.962-5.459 15.316v34.95c0 5.594 1.874 10.089 5.622 13.483s8.689 5.092 14.827 5.092c6.028 0 10.862-1.834 14.501-5.5 3.638-3.666 5.459-8.784 5.459-15.357v-1.955h-17.924V104.957zM670.962 171.19V52.735h22.323V171.19H670.962zM679.027 74.243V52.735h71.284v21.508H679.027zM679.027 123.124v-21.508h62.323v21.508H679.027zM679.027 171.19v-21.507h71.284v21.507H679.027zM815.487 171.109V52.735h27.292l44.074 90.755-1.956 2.119V52.735h21.345v118.373h-27.454l-43.911-89.371 1.955-2.118v91.489H815.487zM973.128 172.412c-8.691 0-16.281-1.806-22.771-5.418-6.49-3.612-11.527-8.703-15.112-15.275-3.584-6.572-5.377-14.23-5.377-22.975V95.18c0-8.798 1.793-16.47 5.377-23.014 3.585-6.545 8.622-11.622 15.112-15.234s14.08-5.418 22.771-5.418c8.69 0 16.28 1.806 22.771 5.418 6.489 3.612 11.527 8.69 15.112 15.234 3.584 6.545 5.377 14.216 5.377 23.014v33.564c0 8.746-1.793 16.403-5.377 22.975-3.585 6.572-8.623 11.663-15.112 15.275C989.407 170.607 981.817 172.412 973.128 172.412zM973.128 150.089c6.082 0 10.958-1.9 14.624-5.703 3.666-3.801 5.5-8.824 5.5-15.072V94.61c0-6.3-1.834-11.336-5.5-15.112-3.666-3.774-8.541-5.662-14.624-5.662-6.083 0-10.958 1.888-14.624 5.662-3.666 3.776-5.5 8.812-5.5 15.112v34.705c0 6.247 1.833 11.271 5.5 15.072C962.17 148.19 967.044 150.089 973.128 150.089zM1023.72 74.243V52.735h86.845v21.508H1023.72zM1055.981 171.19V62.43h22.323v108.76H1055.981zM1587.398 171.19V52.735h22.323V171.19H1587.398zM1598.641 171.19v-21.507h28.432c7.332 0 13.007-1.779 17.028-5.337 4.019-3.557 6.028-8.54 6.028-14.949V94.529c0-6.463-2.01-11.46-6.028-14.991-4.021-3.53-9.696-5.295-17.028-5.295h-28.432V52.735h27.944c14.881 0 26.382 3.706 34.502 11.12 8.118 7.414 12.179 17.856 12.179 31.324v33.564c0 8.42-1.739 15.819-5.214 22.2-3.476 6.383-8.676 11.353-15.601 14.909-6.925 3.558-15.575 5.336-25.948 5.336H1598.641z" class="svgShape color4c8788-30 selectable"></path><path fill="#7db7b3" d="M373.227 171.19V52.735h22.323V171.19H373.227zM383.411 125.241v-21.507h37.883c4.019 0 7.277-1.345 9.775-4.033 2.498-2.689 3.748-6.232 3.748-10.632 0-4.507-1.236-8.106-3.706-10.795-2.472-2.688-5.744-4.032-9.817-4.032h-37.883V52.735h37.312c7.495 0 14.025 1.507 19.593 4.522 5.566 3.015 9.898 7.238 12.993 12.668 3.096 5.432 4.644 11.813 4.644 19.145 0 7.279-1.548 13.633-4.644 19.064-3.096 5.431-7.441 9.641-13.035 12.627-5.594 2.988-12.112 4.48-19.552 4.48H383.411zM458.361 171.19l45.297-118.454h14.176L563.13 171.19h-24.033l-28.351-80.897-28.351 80.897H458.361zM480.114 152.208v-21.508h62.323v21.508H480.114zM614.454 104.957h41.06v23.137c0 8.908-1.793 16.688-5.377 23.34-3.585 6.654-8.595 11.813-15.031 15.479-6.436 3.666-13.999 5.5-22.689 5.5-8.745 0-16.389-1.724-22.934-5.174-6.545-3.448-11.622-8.309-15.234-14.582-3.612-6.273-5.418-13.591-5.418-21.956v-34.95c0-8.907 1.793-16.673 5.377-23.3 3.585-6.626 8.595-11.773 15.031-15.439 6.436-3.666 13.998-5.499 22.689-5.499 7.169 0 13.7 1.466 19.593 4.399 5.893 2.933 10.848 7.034 14.867 12.302 4.019 5.268 6.735 11.434 8.147 18.493h-24.115c-1.195-3.856-3.572-6.829-7.128-8.921-3.558-2.09-7.347-3.136-11.365-3.136-6.028 0-10.863 1.928-14.501 5.784-3.639 3.858-5.459 8.962-5.459 15.316v34.95c0 5.594 1.874 10.089 5.622 13.483 3.748 3.394 8.688 5.092 14.827 5.092 6.028 0 10.862-1.834 14.501-5.5 3.638-3.666 5.459-8.784 5.459-15.357v-1.955h-17.924V104.957zM677.51 171.19V52.735h22.323V171.19H677.51zM685.575 74.243V52.735h71.284v21.508H685.575zM685.575 123.124v-21.508h62.323v21.508H685.575zM685.575 171.19v-21.507h71.284v21.507H685.575zM822.035 171.109V52.735h27.292l44.074 90.755-1.956 2.119V52.735h21.345v118.373h-27.454l-43.911-89.371 1.955-2.118v91.489H822.035zM979.676 172.412c-8.691 0-16.281-1.806-22.771-5.418-6.49-3.612-11.527-8.703-15.112-15.275-3.584-6.572-5.377-14.23-5.377-22.975V95.18c0-8.798 1.793-16.47 5.377-23.014 3.585-6.545 8.622-11.622 15.112-15.234s14.08-5.418 22.771-5.418c8.69 0 16.28 1.806 22.771 5.418 6.489 3.612 11.527 8.69 15.112 15.234 3.584 6.545 5.377 14.216 5.377 23.014v33.564c0 8.746-1.793 16.403-5.377 22.975-3.585 6.572-8.623 11.663-15.112 15.275C995.955 170.607 988.365 172.412 979.676 172.412zM979.676 150.089c6.082 0 10.958-1.9 14.624-5.703 3.666-3.801 5.5-8.824 5.5-15.072V94.61c0-6.3-1.833-11.336-5.5-15.112-3.666-3.774-8.541-5.662-14.624-5.662-6.083 0-10.958 1.888-14.624 5.662-3.666 3.776-5.5 8.812-5.5 15.112v34.705c0 6.247 1.834 11.271 5.5 15.072C968.718 148.19 973.592 150.089 979.676 150.089zM1030.268 74.243V52.735h86.844v21.508H1030.268zM1062.529 171.19V62.43h22.323v108.76H1062.529z" class="svgShape color7db7b3-31 selectable"></path><g><path fill="#4c8788" d="M1192.62,217.479l-25.172-115.749l21.813-4.744l25.172,115.749L1192.62,217.479z M1179.979,121.016
			l-4.571-21.016l68.064-14.802l4.571,21.016L1179.979,121.016z M1190.592,169.815l-4.571-21.016l59.308-12.898l4.571,21.016
			L1190.592,169.815z" class="svgShape color4c8788-33 selectable"></path><path fill="#7db7b3" d="M1199.018,216.088l-25.172-115.749l21.813-4.744l25.172,115.749L1199.018,216.088z
			 M1186.378,119.624l-4.571-21.016l68.064-14.802l4.571,21.016L1186.378,119.624z M1196.99,168.423l-4.571-21.016l59.308-12.898
			l4.571,21.016L1196.99,168.423z" class="svgShape color7db7b3-34 selectable"></path></g><g><path fill="#4c8788" d="M1299.949,233.475c-8.691,0-16.281-1.806-22.771-5.418c-6.49-3.612-11.527-8.703-15.112-15.275
			c-3.584-6.572-5.377-14.23-5.377-22.975v-33.564c0-8.798,1.793-16.47,5.377-23.014c3.585-6.545,8.622-11.622,15.112-15.234
			c6.49-3.612,14.08-5.418,22.771-5.418c8.69,0,16.28,1.806,22.771,5.418c6.489,3.612,11.527,8.69,15.112,15.234
			c3.584,6.545,5.377,14.216,5.377,23.014v33.564c0,8.746-1.793,16.403-5.377,22.975c-3.585,6.572-8.623,11.663-15.112,15.275
			C1316.229,231.67,1308.639,233.475,1299.949,233.475z M1299.949,211.153c6.082,0,10.958-1.9,14.624-5.703
			c3.666-3.801,5.5-8.824,5.5-15.072v-34.705c0-6.3-1.833-11.336-5.5-15.112c-3.666-3.774-8.541-5.662-14.624-5.662
			c-6.083,0-10.958,1.888-14.624,5.662c-3.666,3.776-5.5,8.812-5.5,15.112v34.705c0,6.247,1.834,11.271,5.5,15.072
			C1288.991,209.253,1293.866,211.153,1299.949,211.153z" class="svgShape color4c8788-36 selectable"></path><path fill="#7db7b3" d="M1306.497,233.475c-8.691,0-16.281-1.806-22.771-5.418c-6.49-3.612-11.527-8.703-15.112-15.275
			c-3.584-6.572-5.377-14.23-5.377-22.975v-33.564c0-8.798,1.793-16.47,5.377-23.014c3.585-6.545,8.622-11.622,15.112-15.234
			c6.49-3.612,14.08-5.418,22.771-5.418c8.69,0,16.28,1.806,22.771,5.418c6.489,3.612,11.527,8.69,15.112,15.234
			c3.584,6.545,5.377,14.216,5.377,23.014v33.564c0,8.746-1.793,16.403-5.377,22.975c-3.585,6.572-8.623,11.663-15.112,15.275
			C1322.777,231.67,1315.187,233.475,1306.497,233.475z M1306.497,211.153c6.082,0,10.958-1.9,14.624-5.703
			c3.666-3.801,5.5-8.824,5.5-15.072v-34.705c0-6.3-1.833-11.336-5.5-15.112c-3.666-3.774-8.541-5.662-14.624-5.662
			c-6.083,0-10.958,1.888-14.624,5.662c-3.666,3.776-5.5,8.812-5.5,15.112v34.705c0,6.247,1.833,11.271,5.5,15.072
			C1295.539,209.253,1300.414,211.153,1306.497,211.153z" class="svgShape color7db7b3-37 selectable"></path></g><g><path fill="#4c8788" d="M1417.282,244.147c-13.562,2.211-24.674,0.13-33.334-6.246
			c-8.661-6.374-14.118-16.476-16.373-30.306l-12.165-74.618l22.031-3.592l12.257,75.181c1.093,6.701,3.736,11.607,7.931,14.72
			c4.193,3.113,9.561,4.136,16.101,3.07c6.594-1.075,11.398-3.757,14.413-8.045c3.015-4.289,3.977-9.783,2.885-16.484
			l-12.257-75.181l22.031-3.592l12.165,74.618c2.255,13.83,0.275,25.145-5.939,33.944
			C1440.812,236.417,1430.897,241.927,1417.282,244.147z" class="svgShape color4c8788-39 selectable"></path><path fill="#7db7b3" d="M1423.745,243.093c-13.562,2.211-24.674,0.13-33.334-6.246
			c-8.661-6.374-14.118-16.476-16.373-30.306l-12.165-74.618l22.031-3.592l12.257,75.181c1.093,6.701,3.736,11.607,7.931,14.72
			c4.194,3.113,9.561,4.136,16.101,3.07c6.594-1.075,11.398-3.757,14.413-8.045c3.015-4.289,3.977-9.783,2.885-16.484
			l-12.257-75.181l22.031-3.592l12.165,74.618c2.255,13.83,0.275,25.145-5.939,33.944
			C1447.275,235.364,1437.36,240.873,1423.745,243.093z" class="svgShape color7db7b3-40 selectable"></path></g><g><path fill="#4c8788" d="M1462.681,200.207l19.996-116.672l26.9,4.61l28.11,96.896l-2.286,1.758l15.689-91.539l21.038,3.606
			l-19.996,116.672l-27.06-4.638l-28.183-95.504l2.285-1.757l-15.455,90.174L1462.681,200.207z" class="svgShape color4c8788-42 selectable"></path><path fill="#7db7b3" d="M1469.135,201.313l19.996-116.672l26.9,4.61l28.11,96.896l-2.286,1.758l15.689-91.539l21.038,3.606
			l-19.996,116.672l-27.06-4.638l-28.183-95.504l2.284-1.757l-15.455,90.174L1469.135,201.313z" class="svgShape color7db7b3-43 selectable"></path></g><path fill="#7db7b3" d="M1593.946,171.19V52.735h22.323V171.19H1593.946z M1605.189,171.19v-21.507h28.432
		c7.332,0,13.007-1.779,17.027-5.337c4.019-3.557,6.028-8.54,6.028-14.949V94.529c0-6.463-2.01-11.46-6.028-14.991
		c-4.021-3.53-9.696-5.295-17.027-5.295h-28.432V52.735h27.944c14.881,0,26.382,3.706,34.502,11.12
		c8.118,7.414,12.179,17.856,12.179,31.324v33.564c0,8.42-1.739,15.819-5.214,22.2c-3.476,6.383-8.676,11.353-15.6,14.909
		c-6.926,3.558-15.575,5.336-25.948,5.336H1605.189z" class="svgShape color7db7b3-44 selectable"></path></svg></g></svg>